<?xml version="1.0" standalone="no"?>
<!DOCTYPE svg PUBLIC "-//W3C//DTD SVG 20010904//EN"
 "http://www.w3.org/TR/2001/REC-SVG-20010904/DTD/svg10.dtd">
<svg version="1.0" xmlns="http://www.w3.org/2000/svg"
 width="1136.000000pt" height="404.000000pt" viewBox="0 0 1136.000000 404.000000"
 preserveAspectRatio="xMidYMid meet">

<g transform="translate(0.000000,404.000000) scale(0.100000,-0.100000)"
fill="#000000" stroke="none">
<path d="M1695 2904 c-199 -27 -329 -64 -465 -135 -213 -111 -359 -287 -424
-513 -15 -49 -26 -107 -26 -131 0 -50 -6 -55 -82 -78 -60 -19 -108 -62 -108
-97 0 -55 39 -92 122 -117 l50 -14 -25 -27 c-86 -90 -75 -251 23 -323 18 -14
32 -37 40 -66 39 -158 163 -279 318 -312 75 -16 1570 -15 1644 0 154 33 262
136 314 299 11 36 28 64 50 82 90 77 100 221 21 314 l-27 31 58 22 c144 52
146 164 4 208 -74 22 -82 29 -82 68 0 62 -49 225 -91 305 -127 239 -366 397
-699 464 -188 37 -429 46 -615 20z m551 -118 c45 -8 121 -26 170 -41 180 -55
287 -118 397 -234 100 -107 159 -238 182 -408 l7 -53 -1062 0 -1063 0 7 62
c17 145 89 306 181 401 163 168 359 249 705 291 68 8 396 -4 476 -18z m-1292
-844 c144 -3 150 -4 168 -27 28 -36 152 -92 248 -112 120 -25 412 -25 528 0
120 26 184 52 235 97 l45 40 435 0 c248 0 446 4 460 9 14 6 38 6 54 2 27 -7
25 -9 -27 -24 -30 -9 -68 -19 -85 -23 -59 -14 -111 -47 -186 -120 -86 -83 -96
-86 -187 -53 -173 63 -195 62 -322 -22 -51 -34 -100 -59 -115 -59 -14 0 -67
21 -118 47 -128 66 -167 65 -299 -1 -116 -58 -131 -57 -223 9 -121 86 -169 91
-312 34 -41 -16 -84 -29 -97 -29 -27 0 -63 26 -120 88 -49 54 -103 85 -181
107 -33 9 -76 21 -95 28 -34 10 -34 11 -10 18 14 4 32 4 40 1 8 -4 82 -8 164
-10z m997 -13 c-52 -21 -200 -39 -316 -39 -116 0 -264 18 -316 39 -16 7 90 10
316 10 226 0 332 -3 316 -10z m92 -535 c69 -35 123 -73 199 -139 35 -30 72
-55 82 -55 11 0 40 17 66 39 75 64 151 107 245 141 78 28 107 33 214 38 l123
4 -7 -23 c-15 -47 -38 -83 -85 -130 -82 -82 -42 -79 -940 -79 -898 0 -858 -3
-940 79 -44 44 -90 116 -90 141 0 7 173 10 540 10 l541 0 52 -26z m347 -18
l-64 -45 -25 19 c-14 11 -39 30 -56 44 l-30 25 119 1 120 0 -64 -44z"/>
<path d="M1433 2710 c-36 -21 -63 -66 -63 -103 0 -31 19 -39 64 -26 43 12 82
59 91 112 7 37 7 37 -26 37 -19 0 -48 -9 -66 -20z"/>
<path d="M1924 2711 c-49 -30 -83 -121 -50 -134 23 -9 81 11 104 35 23 26 42
69 42 99 0 26 -54 26 -96 0z"/>
<path d="M2350 2711 c0 -30 19 -73 42 -99 23 -24 81 -44 104 -35 33 13 -1 104
-50 134 -42 26 -96 26 -96 0z"/>
<path d="M1184 2391 c-29 -18 -64 -81 -64 -116 0 -24 72 -19 104 6 32 25 56
69 56 104 0 22 -4 25 -32 25 -18 0 -47 -9 -64 -19z"/>
<path d="M1620 2379 c0 -39 25 -82 60 -103 16 -9 42 -16 59 -16 27 0 31 4 31
25 0 61 -60 125 -116 125 -31 0 -34 -2 -34 -31z"/>
<path d="M2149 2371 c-31 -31 -39 -46 -39 -75 0 -35 1 -36 36 -36 52 0 114 62
114 114 0 35 -1 36 -36 36 -29 0 -44 -8 -75 -39z"/>
<path d="M2603 2368 c8 -57 61 -108 112 -108 32 0 35 2 35 31 0 63 -57 119
-120 119 -33 0 -33 0 -27 -42z"/>
<path d="M4385 2796 c-201 -39 -346 -136 -439 -295 -71 -123 -104 -253 -112
-456 -15 -321 69 -577 240 -732 111 -102 247 -147 441 -146 207 1 346 53 470
178 78 77 138 181 174 299 12 37 21 70 21 72 0 3 -34 4 -76 2 l-77 -3 -22 -68
c-76 -226 -249 -357 -470 -357 -112 0 -177 14 -262 55 -145 71 -244 229 -283
453 -14 80 -14 276 -1 370 39 267 187 452 401 502 117 28 327 6 410 -43 91
-52 171 -159 199 -265 l12 -42 74 0 c87 0 85 -3 54 96 -54 179 -172 296 -366
366 -75 26 -284 34 -388 14z"/>
<path d="M7900 2675 l0 -95 70 0 70 0 0 95 0 95 -70 0 -70 0 0 -95z"/>
<path d="M7020 2346 c-176 -37 -308 -171 -371 -376 -20 -63 -24 -97 -24 -215
0 -156 18 -235 78 -348 97 -184 324 -269 572 -215 168 36 292 173 339 371 l6
27 -67 0 -68 0 -17 -58 c-47 -161 -184 -251 -361 -239 -216 15 -347 192 -347
472 0 264 125 447 325 474 162 22 305 -58 366 -205 l23 -54 64 0 64 0 -6 36
c-23 121 -110 240 -212 290 -103 50 -245 66 -364 40z"/>
<path d="M8750 2344 c-69 -19 -120 -49 -192 -114 l-58 -52 0 76 0 76 -65 0
-65 0 0 -565 0 -565 65 0 65 0 0 360 c0 360 5 431 37 495 41 81 123 151 205
176 49 15 177 12 226 -5 62 -22 107 -61 134 -114 23 -47 23 -49 26 -479 l3
-433 65 0 65 0 -3 448 c-3 440 -3 448 -26 496 -34 74 -84 129 -149 163 -100
53 -222 67 -333 37z"/>
<path d="M9900 2345 c-91 -18 -152 -47 -205 -96 -61 -56 -91 -110 -108 -192
l-15 -67 69 0 c60 0 69 2 69 18 0 40 33 112 68 150 52 55 131 83 241 84 199 1
291 -69 295 -225 2 -117 -26 -133 -294 -168 -299 -38 -418 -98 -477 -237 -19
-46 -22 -153 -5 -212 40 -137 175 -222 356 -224 141 -1 272 48 373 138 l50 46
7 -48 c8 -59 28 -90 72 -108 39 -16 121 -18 158 -4 23 8 26 15 26 60 0 49 0
49 -26 40 -14 -6 -36 -10 -48 -10 -50 0 -51 6 -56 419 -6 367 -7 389 -28 441
-12 30 -36 72 -53 93 -80 97 -280 140 -469 102z m418 -673 c-7 -156 -26 -210
-100 -277 -108 -97 -330 -136 -444 -77 -113 58 -149 189 -80 293 50 74 120
101 321 124 147 17 202 28 260 49 22 8 42 15 44 15 2 1 2 -56 -1 -127z"/>
<path d="M5450 1962 c0 -202 5 -406 11 -452 25 -202 125 -305 318 -329 161
-20 278 16 387 120 l64 62 0 -81 0 -82 65 0 65 0 0 565 0 565 -64 0 -64 0 -5
-357 c-5 -376 -8 -407 -53 -498 -77 -154 -243 -220 -415 -165 -85 27 -128 66
-155 137 -16 43 -19 90 -22 466 l-3 417 -65 0 -64 0 0 -368z"/>
<path d="M7900 1765 l0 -565 65 0 65 0 0 565 0 565 -65 0 -65 0 0 -565z"/>
</g>
</svg>
